#tb 0: 1/5
#media_type 0: video
#codec_id 0: rawvideo
#dimensions 0: 4096x4096
#sar 0: 1/1
0,          0,          0,        1, 50331648, 0x70b16aca
0,          1,          1,        1, 50331648, 0x70b16aca
0,          2,          2,        1, 50331648, 0x70b16aca
0,          3,          3,        1, 50331648, 0x70b16aca
0,          4,          4,        1, 50331648, 0x70b16aca
